<?xml version="1.0" encoding="utf-8"?>
<!-- Generator: Adobe Illustrator 27.2.0, SVG Export Plug-In . SVG Version: 6.00 Build 0)  -->
<svg version="1.1" id="Layer_1" xmlns="http://www.w3.org/2000/svg" xmlns:xlink="http://www.w3.org/1999/xlink" x="0px" y="0px"
	 viewBox="0 0 2000 2000" style="enable-background:new 0 0 2000 2000;" xml:space="preserve">
<style type="text/css">
	.st0{display:none;fill:url(#SVGID_1_);}
	.st1{fill:url(#SVGID_00000085227590641378916580000005017644253729563028_);}
	.st2{fill:none;}
	.st3{fill:url(#SVGID_00000152944903705309934250000003303016017163790987_);}
	.st4{fill:url(#SVGID_00000013894817859664618240000009501652755210991529_);}
	.st5{fill:url(#SVGID_00000160177064184045607020000014734602987808492719_);}
	.st6{fill:url(#SVGID_00000158734509814364337050000017926257883409327802_);}
	.st7{fill:url(#SVGID_00000044883161053810715880000005838397332744042134_);}
	.st8{fill:url(#SVGID_00000109748963604665065010000002240839253217598852_);}
	.st9{fill:url(#SVGID_00000044136855795814954170000001377271158307068299_);}
	.st10{fill:url(#SVGID_00000139258904044151180580000005266782406076356008_);}
	.st11{fill:url(#SVGID_00000010993731039067036810000015627776748820089787_);}
	.st12{fill:url(#SVGID_00000051375711993445883740000016641984723821577887_);}
	.st13{fill:url(#SVGID_00000049935625284288631240000004303967231190529451_);}
	.st14{fill:none;stroke:url(#SVGID_00000172406914659069376680000012898839392654434962_);stroke-width:60;stroke-miterlimit:10;}
	.st15{display:none;}
	.st16{fill:url(#SVGID_00000143612966242777581930000013799635105755855255_);}
	.st17{fill:url(#SVGID_00000052063228385306156990000007345520360677830844_);}
	.st18{fill:url(#SVGID_00000124153823075840285950000004020835882808861625_);}
	.st19{fill:url(#SVGID_00000094601475951358579280000009402228812973854886_);}
	.st20{fill:url(#SVGID_00000061445218508335647880000011749936021612577943_);}
	.st21{fill:url(#SVGID_00000071523245178727744330000015350397279521365919_);}
	.st22{fill:url(#SVGID_00000108279315486680252490000000581191300469735332_);}
	.st23{fill:url(#SVGID_00000044151445403883505670000007215242243325314944_);}
	.st24{fill:url(#SVGID_00000104685663942111252090000002218948494250742656_);}
	.st25{fill:url(#SVGID_00000057838492059434574760000014423754142268933277_);}
</style>
<linearGradient id="SVGID_1_" gradientUnits="userSpaceOnUse" x1="0" y1="1000" x2="2000" y2="1000">
	<stop  offset="0" style="stop-color:#FFFFFF"/>
	<stop  offset="1" style="stop-color:#C8C8C8"/>
</linearGradient>
<rect class="st0" width="2000" height="2000"/>
<linearGradient id="SVGID_00000036223534014873383150000013242030380968024481_" gradientUnits="userSpaceOnUse" x1="25" y1="1000" x2="1975" y2="1000">
	<stop  offset="0" style="stop-color:#D60000"/>
	<stop  offset="1" style="stop-color:#FF9700"/>
</linearGradient>
<circle style="fill:url(#SVGID_00000036223534014873383150000013242030380968024481_);" cx="1000" cy="1000" r="975"/>
<circle class="st2" cx="1000" cy="1000" r="842.67"/>
<linearGradient id="SVGID_00000092438109492300009200000004913081442932552618_" gradientUnits="userSpaceOnUse" x1="89" y1="1000" x2="1911" y2="1000">
	<stop  offset="0" style="stop-color:#383A50"/>
	<stop  offset="1" style="stop-color:#0F0F0F"/>
</linearGradient>
<circle style="fill:url(#SVGID_00000092438109492300009200000004913081442932552618_);" cx="1000" cy="1000" r="911"/>
<radialGradient id="SVGID_00000075145117553712406630000011787420078568938931_" cx="690.3418" cy="1685.2146" r="157.9532" gradientTransform="matrix(0.7071 -0.7071 2.8284 2.8284 -4564.3101 -2593.1467)" gradientUnits="userSpaceOnUse">
	<stop  offset="0" style="stop-color:#F70B0B"/>
	<stop  offset="1" style="stop-color:#780015"/>
</radialGradient>
<path style="fill:url(#SVGID_00000075145117553712406630000011787420078568938931_);" d="M865.01,1728.84
	c0,26.09,0.14,52.17-0.05,78.26c-0.12,16.74-2.58,18.59-18.43,15.71c-113.57-20.61-217.87-63.98-313.92-127.66
	c-1.14-0.76-2.29-1.52-3.41-2.31c-18.05-12.71-18.19-13.68-2.66-29.28c36.47-36.63,73.17-73.03,109.39-109.9
	c8.65-8.81,16.28-9.17,26.56-2.91c57.4,34.98,118.52,61.26,184.19,76.25c13.24,3.02,19.24,9.29,18.73,23.58
	c-0.92,26.05-0.26,52.16-0.26,78.25C865.1,1728.84,865.05,1728.84,865.01,1728.84z"/>
<radialGradient id="SVGID_00000129921246150827525880000013195625956642587276_" cx="313.5753" cy="690.1093" r="158.0863" gradientTransform="matrix(0.866 0.5 -2 3.4641 1422.2297 -1857.2871)" gradientUnits="userSpaceOnUse">
	<stop  offset="0" style="stop-color:#F70B0B"/>
	<stop  offset="1" style="stop-color:#780015"/>
</radialGradient>
<path style="fill:url(#SVGID_00000129921246150827525880000013195625956642587276_);" d="M270.48,864.98
	c-26.56,0.01-53.12,0.12-79.67-0.03c-14.45-0.08-18.43-4.78-15.63-18.4c23.59-114.57,65.73-221.47,131.94-318.38
	c11.34-16.61,13.71-16.92,27.73-2.91c36.86,36.82,73.52,73.85,110.62,110.43c8.66,8.54,9.6,15.96,3.15,26.46
	c-34.68,56.51-60.24,116.9-75.83,181.46c-5,20.7-6.39,21.36-28.13,21.36C319.93,864.97,295.21,864.96,270.48,864.98z"/>
<radialGradient id="SVGID_00000177444689625806156820000010837661940776179341_" cx="1685.364" cy="690.1952" r="158.0577" gradientTransform="matrix(1 0 0 4 0 -2070.5857)" gradientUnits="userSpaceOnUse">
	<stop  offset="0" style="stop-color:#24BC2B"/>
	<stop  offset="1" style="stop-color:#118315"/>
</radialGradient>
<path style="fill:url(#SVGID_00000177444689625806156820000010837661940776179341_);" d="M1727.91,865.1
	c-26.55,0-53.1-0.27-79.64,0.13c-11.48,0.17-17.62-4.41-20.31-15.71c-15.89-66.79-41.42-129.66-77.78-188
	c-5.97-9.59-5.07-17.32,3.26-25.53c37.43-36.93,74.39-74.34,111.65-111.44c13.07-13.01,15.57-12.72,25.9,2.35
	c60.41,88.16,102.27,184.42,125.75,288.67c2.4,10.66,4.6,21.37,6.72,32.08c2.73,13.8-0.04,17.21-14.53,17.29
	c-27,0.14-54.01,0.04-81.01,0.04C1727.91,865.01,1727.91,865.05,1727.91,865.1z"/>
<radialGradient id="SVGID_00000060026308103647963360000014736971250157420727_" cx="314.1837" cy="1309.1099" r="158.0805" gradientTransform="matrix(1 0 0 4 0 -3927.3296)" gradientUnits="userSpaceOnUse">
	<stop  offset="0" style="stop-color:#24BC2B"/>
	<stop  offset="1" style="stop-color:#118315"/>
</radialGradient>
<path style="fill:url(#SVGID_00000060026308103647963360000014736971250157420727_);" d="M270.62,1134.39
	c26.56,0,53.13,0.44,79.68-0.2c12.15-0.29,18.39,4.03,21.27,16.07c16.06,67.24,41.67,130.59,78.58,189.21
	c5.12,8.14,4.18,15.16-2.81,22.11c-39.3,39.03-78.51,78.16-117.52,117.48c-9.74,9.82-14.99,3.44-20.36-4.46
	c-48.96-72.02-87.05-149.33-111.5-232.99c-8.7-29.76-14.78-60.29-22.08-90.46c-2.82-11.65,0.92-17.08,13.7-16.83
	c27.01,0.53,54.03,0.16,81.05,0.16C270.62,1134.44,270.62,1134.42,270.62,1134.39z"/>
<radialGradient id="SVGID_00000134221538241364263900000015966773725827105449_" cx="1308.9469" cy="314.0217" r="157.933" gradientTransform="matrix(0.7071 -0.7071 2.8284 2.8284 -504.8059 351.3994)" gradientUnits="userSpaceOnUse">
	<stop  offset="0" style="stop-color:#F70B0B"/>
	<stop  offset="1" style="stop-color:#780015"/>
</radialGradient>
<path style="fill:url(#SVGID_00000134221538241364263900000015966773725827105449_);" d="M1134.37,270.22
	c0.01-26.1-0.05-52.2,0.03-78.3c0.05-16.56,2.48-18.83,18.49-15.82c91.97,17.27,178.87,48.61,260.08,95.18
	c21.41,12.28,41.84,26.25,62.85,39.24c9.99,6.17,10.34,12.34,2.02,20.6c-38.35,38.03-76.52,76.24-114.54,114.61
	c-7.88,7.96-14.99,9.94-25.26,3.52c-57.91-36.17-120.4-61.7-186.73-77.59c-12.63-3.02-17.46-8.97-17.15-21.77
	C1134.81,323.35,1134.37,296.78,1134.37,270.22z"/>
<radialGradient id="SVGID_00000170987652940702309890000010434284827090979247_" cx="690.2208" cy="314.1608" r="158.1055" gradientTransform="matrix(-0.5 -0.866 3.4641 -2 -52.9538 1540.2313)" gradientUnits="userSpaceOnUse">
	<stop  offset="0" style="stop-color:#24BC2B"/>
	<stop  offset="1" style="stop-color:#118315"/>
</radialGradient>
<path style="fill:url(#SVGID_00000170987652940702309890000010434284827090979247_);" d="M865.12,271.9
	c-0.01,26.09-0.37,52.19,0.15,78.27c0.24,12.15-4.61,18.46-16.39,21.3C781.73,387.64,718.45,413.33,659.8,450
	c-9.08,5.68-15.9,3.58-23.03-3.6c-37.06-37.3-74.4-74.32-111.55-111.53c-14.05-14.07-13.65-16.46,2.95-27.69
	c90.05-60.91,188.06-103.22,294.37-126.17c8.93-1.93,17.95-3.42,26.88-5.33c11.58-2.48,15.92,2.51,15.8,13.83
	C864.94,216.97,865.13,244.44,865.12,271.9z"/>
<radialGradient id="SVGID_00000077308143288174384400000018386963633931411893_" cx="1685.2975" cy="1309.2943" r="158.1343" gradientTransform="matrix(0.866 0.5 -2 3.4641 2844.3755 -4068.8828)" gradientUnits="userSpaceOnUse">
	<stop  offset="0" style="stop-color:#F70B0B"/>
	<stop  offset="1" style="stop-color:#780015"/>
</radialGradient>
<path style="fill:url(#SVGID_00000077308143288174384400000018386963633931411893_);" d="M1728.95,1134.33
	c27.02,0,54.04,0.26,81.06-0.12c11.47-0.16,16.08,4.08,13.88,15.71c-22.14,117.11-66.02,225.24-133.6,323.57
	c-9.6,13.97-11.98,14.27-24.02,2.28c-37.93-37.76-75.51-75.88-113.56-113.51c-8.02-7.93-8.35-15.01-2.64-24.19
	c36.57-58.77,62.28-122.11,78.23-189.39c2.43-10.27,7.82-14.5,18.22-14.39c27.47,0.3,54.96,0.1,82.43,0.1
	C1728.95,1134.37,1728.95,1134.35,1728.95,1134.33z"/>
<radialGradient id="SVGID_00000089565927197802681860000003690185648411933106_" cx="1308.9015" cy="1685.0444" r="157.8126" gradientTransform="matrix(-0.5 -0.866 3.4641 -2 -3873.8127 6188.6753)" gradientUnits="userSpaceOnUse">
	<stop  offset="0" style="stop-color:#24BC2B"/>
	<stop  offset="1" style="stop-color:#118315"/>
</radialGradient>
<path style="fill:url(#SVGID_00000089565927197802681860000003690185648411933106_);" d="M1134.38,1728.1
	c0-26.1,0.38-52.21-0.17-78.3c-0.26-12.44,3.76-18.93,16.7-22.11c66.15-16.25,128.95-40.92,186.65-77.6
	c9.63-6.12,17.17-5.14,25.38,3.19c37.86,38.4,76.03,76.51,114.41,114.39c8.86,8.74,8.34,14.64-1.91,21.65
	c-73.89,50.47-153.43,89.08-239.58,113.42c-28.5,8.05-57.71,13.54-86.54,20.43c-11.18,2.67-14.99-1.75-14.85-12.66
	c0.34-27.47,0.11-54.94,0.11-82.41C1134.52,1728.1,1134.45,1728.1,1134.38,1728.1z"/>
<linearGradient id="SVGID_00000124142755761791548950000016405673074291546525_" gradientUnits="userSpaceOnUse" x1="488" y1="1000" x2="1512" y2="1000">
	<stop  offset="0" style="stop-color:#FFFFFF"/>
	<stop  offset="1" style="stop-color:#C8C8C8"/>
</linearGradient>
<circle style="fill:url(#SVGID_00000124142755761791548950000016405673074291546525_);" cx="1000" cy="1000" r="512"/>
<linearGradient id="SVGID_00000080208666994154613080000002269932863742580354_" gradientUnits="userSpaceOnUse" x1="488.0001" y1="1000" x2="1511.9999" y2="1000">
	<stop  offset="0" style="stop-color:#383A50"/>
	<stop  offset="1" style="stop-color:#0F0F0F"/>
</linearGradient>
<path style="fill:url(#SVGID_00000080208666994154613080000002269932863742580354_);" d="M1000,488c-282.77,0-512,229.23-512,512
	s229.23,512,512,512s512-229.23,512-512S1282.77,488,1000,488z"/>
<linearGradient id="SVGID_00000052078853058145039080000007838361377378994823_" gradientUnits="userSpaceOnUse" x1="434.722" y1="1000" x2="1565.2781" y2="1000">
	<stop  offset="0" style="stop-color:#D60000"/>
	<stop  offset="1" style="stop-color:#FF9700"/>
</linearGradient>
<circle style="fill:none;stroke:url(#SVGID_00000052078853058145039080000007838361377378994823_);stroke-width:60;stroke-miterlimit:10;" cx="1000" cy="1000" r="535.28"/>
<path class="st15" d="M0,0v2000h2000V0H0z M1000,1975c-538.48,0-975-436.52-975-975S461.52,25,1000,25s975,436.52,975,975
	S1538.48,1975,1000,1975z"/>
<g>
	<g id="_x39_ZtuKW_00000160893388965429751740000017347076729942183352_">
		<g>
			
				<linearGradient id="SVGID_00000181087416331379086060000018232533093542996873_" gradientUnits="userSpaceOnUse" x1="907.6333" y1="251.5106" x2="1092.3667" y2="251.5106">
				<stop  offset="0" style="stop-color:#D60000"/>
				<stop  offset="0.9995" style="stop-color:#FF9700"/>
			</linearGradient>
			<path style="fill:url(#SVGID_00000181087416331379086060000018232533093542996873_);" d="M999.94,163.64
				c3.88,10.72,7.43,20.52,10.97,30.32c3.71,10.27,7.53,20.5,11.03,30.85c0.96,2.84,2.38,3.7,5.22,3.78
				c19.55,0.55,39.1,1.25,58.65,1.89c1.72,0.06,3.44,0.01,6.56,0.01c-2.04,1.72-3.11,2.67-4.23,3.55
				c-15.78,12.26-31.53,24.58-47.42,36.71c-2.37,1.81-2.75,3.35-1.93,6.1c5.87,19.84,11.57,39.74,17.32,59.61
				c0.19,0.66,0.38,1.32,0.78,2.72c-1.63-0.97-2.69-1.52-3.67-2.19c-16.78-11.38-33.58-22.71-50.26-34.23
				c-2.44-1.68-3.98-1.61-6.37,0.04c-16.34,11.25-32.79,22.34-49.21,33.47c-1.3,0.88-2.63,1.71-4.78,3.12
				c2.68-9.3,5.1-17.77,7.55-26.23c3.52-12.14,6.98-24.31,10.68-36.4c0.86-2.8,0.31-4.31-2-6.08
				c-15.87-12.16-31.61-24.47-47.39-36.74c-1.08-0.84-2.1-1.76-3.8-3.19c4.8-0.24,8.77-0.49,12.73-0.61
				c17.39-0.56,34.79-1.16,52.18-1.57c2.92-0.07,4.18-1.1,5.16-3.85c6.65-18.83,13.51-37.59,20.32-56.37
				C998.48,167.06,999.05,165.81,999.94,163.64z"/>
		</g>
	</g>
	<g id="_x39_ZtuKW_00000044142864493096649180000001786375440993679750_">
		<g>
			
				<linearGradient id="SVGID_00000024717952390091432620000007951081600971893650_" gradientUnits="userSpaceOnUse" x1="907.6333" y1="1768.7308" x2="1092.3667" y2="1768.7308" gradientTransform="matrix(-1 0 0 -1 2000 3517.2202)">
				<stop  offset="0" style="stop-color:#D60000"/>
				<stop  offset="0.9995" style="stop-color:#FF9700"/>
			</linearGradient>
			<path style="fill:url(#SVGID_00000024717952390091432620000007951081600971893650_);" d="M1000.06,1836.36
				c-3.88-10.72-7.43-20.52-10.97-30.32c-3.71-10.27-7.53-20.5-11.03-30.85c-0.96-2.84-2.38-3.7-5.22-3.78
				c-19.55-0.55-39.1-1.25-58.65-1.89c-1.72-0.06-3.44-0.01-6.56-0.01c2.04-1.72,3.11-2.67,4.23-3.55
				c15.78-12.26,31.53-24.58,47.42-36.71c2.37-1.81,2.75-3.35,1.93-6.1c-5.87-19.84-11.57-39.74-17.32-59.61
				c-0.19-0.66-0.38-1.32-0.78-2.72c1.63,0.97,2.69,1.52,3.67,2.19c16.78,11.38,33.58,22.71,50.26,34.23
				c2.44,1.68,3.98,1.61,6.37-0.04c16.34-11.25,32.79-22.34,49.21-33.47c1.3-0.88,2.63-1.71,4.78-3.12
				c-2.68,9.3-5.1,17.77-7.55,26.23c-3.52,12.14-6.98,24.31-10.68,36.4c-0.86,2.8-0.31,4.31,2,6.08
				c15.87,12.16,31.61,24.47,47.39,36.74c1.08,0.84,2.1,1.76,3.8,3.19c-4.8,0.24-8.77,0.49-12.73,0.61
				c-17.39,0.56-34.79,1.16-52.18,1.57c-2.92,0.07-4.18,1.1-5.16,3.85c-6.65,18.83-13.51,37.59-20.32,56.37
				C1001.52,1832.94,1000.95,1834.19,1000.06,1836.36z"/>
		</g>
	</g>
</g>
<g>
	<g id="_x39_ZtuKW_00000075134147721357381450000002171575867350708909_">
		<g>
			
				<linearGradient id="SVGID_00000172404777667365049280000018324092021665553071_" gradientUnits="userSpaceOnUse" x1="1655.9131" y1="1019.3929" x2="1840.6465" y2="1019.3929" gradientTransform="matrix(0 -1 1 0 -768.9405 2748.2798)">
				<stop  offset="0" style="stop-color:#D60000"/>
				<stop  offset="0.9995" style="stop-color:#FF9700"/>
			</linearGradient>
			<path style="fill:url(#SVGID_00000172404777667365049280000018324092021665553071_);" d="M162.58,1000.06
				c10.72-3.88,20.52-7.43,30.32-10.97c10.27-3.71,20.5-7.53,30.85-11.03c2.84-0.96,3.7-2.38,3.78-5.22
				c0.55-19.55,1.25-39.1,1.89-58.65c0.06-1.72,0.01-3.44,0.01-6.56c1.72,2.04,2.67,3.11,3.55,4.23
				c12.26,15.78,24.58,31.53,36.71,47.42c1.81,2.37,3.35,2.75,6.1,1.93c19.84-5.87,39.74-11.57,59.61-17.32
				c0.66-0.19,1.32-0.38,2.72-0.78c-0.97,1.63-1.52,2.69-2.19,3.67c-11.38,16.78-22.71,33.58-34.23,50.26
				c-1.68,2.44-1.61,3.98,0.04,6.37c11.25,16.34,22.34,32.79,33.47,49.21c0.88,1.3,1.71,2.63,3.12,4.78
				c-9.3-2.68-17.77-5.1-26.23-7.55c-12.14-3.52-24.31-6.98-36.4-10.68c-2.8-0.86-4.31-0.31-6.08,2
				c-12.16,15.87-24.47,31.61-36.74,47.39c-0.84,1.08-1.76,2.1-3.19,3.8c-0.24-4.8-0.49-8.77-0.61-12.73
				c-0.56-17.39-1.16-34.79-1.57-52.18c-0.07-2.92-1.1-4.18-3.85-5.16c-18.83-6.65-37.59-13.51-56.37-20.32
				C166,1001.52,164.76,1000.95,162.58,1000.06z"/>
		</g>
	</g>
	<g id="_x39_ZtuKW_00000082351627501356856450000009442807972485777024_">
		<g>
			
				<linearGradient id="SVGID_00000150078033353504017720000011389865903530869391_" gradientUnits="userSpaceOnUse" x1="2718.3374" y1="-39.5008" x2="2903.0706" y2="-39.5008" gradientTransform="matrix(0 1 -1 0 1710.0468 -1810.704)">
				<stop  offset="0" style="stop-color:#D60000"/>
				<stop  offset="0.9995" style="stop-color:#FF9700"/>
			</linearGradient>
			<path style="fill:url(#SVGID_00000150078033353504017720000011389865903530869391_);" d="M1837.42,999.94
				c-10.72,3.88-20.52,7.43-30.32,10.97c-10.27,3.71-20.5,7.53-30.85,11.03c-2.84,0.96-3.7,2.38-3.78,5.22
				c-0.55,19.55-1.25,39.1-1.89,58.65c-0.06,1.72-0.01,3.44-0.01,6.56c-1.72-2.04-2.67-3.11-3.55-4.23
				c-12.26-15.78-24.58-31.53-36.71-47.42c-1.81-2.37-3.35-2.75-6.1-1.93c-19.84,5.87-39.74,11.57-59.61,17.32
				c-0.66,0.19-1.32,0.38-2.72,0.78c0.97-1.63,1.52-2.69,2.19-3.67c11.38-16.78,22.71-33.58,34.23-50.26
				c1.68-2.44,1.61-3.98-0.04-6.37c-11.25-16.34-22.34-32.79-33.47-49.21c-0.88-1.3-1.71-2.63-3.12-4.78
				c9.3,2.68,17.77,5.1,26.23,7.55c12.14,3.52,24.31,6.98,36.4,10.68c2.8,0.86,4.31,0.31,6.08-2
				c12.16-15.87,24.47-31.61,36.74-47.39c0.84-1.08,1.76-2.1,3.19-3.8c0.24,4.8,0.49,8.77,0.61,12.73
				c0.56,17.39,1.16,34.79,1.57,52.18c0.07,2.92,1.1,4.18,3.85,5.16c18.83,6.65,37.59,13.51,56.37,20.32
				C1834,998.48,1835.24,999.05,1837.42,999.94z"/>
		</g>
	</g>
</g>
<g id="iznN4p_00000018236863835917918840000007008196632331298436_">
	<g>
		
			<linearGradient id="SVGID_00000136409227849771914780000002176288286727554975_" gradientUnits="userSpaceOnUse" x1="914.8755" y1="277.0194" x2="1076.5914" y2="277.0194" gradientTransform="matrix(0.7071 0.7071 -0.7071 0.7071 999.9359 -414.2148)">
			<stop  offset="0" style="stop-color:#D60000"/>
			<stop  offset="0.9995" style="stop-color:#FF9700"/>
		</linearGradient>
		<path style="fill:url(#SVGID_00000136409227849771914780000002176288286727554975_);" d="M1543.68,450.07
			c3.38-0.44,6.66-1.06,9.95-1.27c10.54-0.66,20.35,1.64,29.01,7.87c18.74,13.48,23.85,38.7,10.07,57.98
			c-3.46,4.84-7.83,8.78-12.37,12.54c-5.46,4.53-11.44,8.21-18.12,10.71c-7.81,2.92-15.94,3.95-24.21,4.16
			c-11.5,0.29-22.94-0.79-34.39-1.47c-15.6-0.93-31.21-1.72-46.82-2.57c-0.26-0.01-0.51-0.04-0.86-0.07
			c-0.05-1.58-0.05-3.12-0.14-4.66c-1.07-18.17-2.15-36.33-3.23-54.5c-0.58-9.65-1.09-19.3-0.37-28.97
			c0.91-12.28,4.75-23.47,12.24-33.29c4.64-6.07,9.64-11.81,16.04-16.16c13.99-9.51,32.77-9.27,46.45,0.68
			c14.09,10.25,19.48,24.33,18.06,41.37c-0.11,1.31-0.33,2.62-0.55,3.92C1544.2,447.6,1543.92,448.85,1543.68,450.07z"/>
	</g>
</g>
<linearGradient id="SVGID_00000075864850850780109540000005797367581267342232_" gradientUnits="userSpaceOnUse" x1="544.8901" y1="1585.1066" x2="414.3731" y2="1454.5895">
	<stop  offset="0" style="stop-color:#D60000"/>
	<stop  offset="0.9995" style="stop-color:#FF9700"/>
</linearGradient>
<rect x="414.37" y="1454.59" style="fill:url(#SVGID_00000075864850850780109540000005797367581267342232_);" width="130.52" height="130.52"/>
<g>
	<g id="Yb0xZG_00000161601230587347700700000006311793478240363188_">
		<g>
			
				<linearGradient id="SVGID_00000156579814020292084070000011876981528894706865_" gradientUnits="userSpaceOnUse" x1="924.4588" y1="247.9403" x2="1076.7743" y2="247.9403" gradientTransform="matrix(0.7071 -0.7071 0.7071 0.7071 -414.7185 1000.2709)">
				<stop  offset="0" style="stop-color:#D60000"/>
				<stop  offset="0.9995" style="stop-color:#FF9700"/>
			</linearGradient>
			<path style="fill:url(#SVGID_00000156579814020292084070000011876981528894706865_);" d="M407.07,406.78
				c6.01,1.48,12.28,3.28,18.66,4.55c19.31,3.84,38.69,2.92,58.03,0.14c10.93-1.57,21.73-1.7,32.28,2.14
				c26.3,9.56,31.44,39.45,16.01,59.15c-6.77,8.65-15.79,13.69-26.28,16.38c-0.9,0.23-1.8,0.45-3.26,0.82
				c1.87,1.26,3.28,2.32,4.79,3.22c12.13,7.24,24.96,11.21,39.34,9.03c1.71-0.26,3.84,2.26,6.02,3.64
				c-15.76,15.76-30.95,30.95-46.28,46.28c-2.78-2.1-4.65-3.95-4.05-8.25c1.92-13.79-2.59-26.16-9.8-37.71
				c-0.69-1.11-1.5-2.15-2.55-3.64c-0.34,1.34-0.56,2.2-0.79,3.07c-3.29,12.97-10.06,23.49-21.98,30.08
				c-22.53,12.45-48.47,1.12-54.93-23.88c-2.42-9.35-2.14-18.76-0.77-28.23c2.43-16.77,3.56-33.61,1.01-50.44
				C411.18,424.27,408.92,415.54,407.07,406.78z"/>
		</g>
	</g>
	<g id="_x30_rWbzm_00000149354677669639524140000010600903333699039673_">
		<g>
			
				<linearGradient id="SVGID_00000098203296866382349770000003647394654947183249_" gradientUnits="userSpaceOnUse" x1="917.2151" y1="265.1603" x2="1087.5535" y2="265.1603" gradientTransform="matrix(-0.7071 0.7071 -0.7071 -0.7071 2414.2136 1000)">
				<stop  offset="0" style="stop-color:#D60000"/>
				<stop  offset="0.9995" style="stop-color:#FF9700"/>
			</linearGradient>
			<path style="fill:url(#SVGID_00000098203296866382349770000003647394654947183249_);" d="M1421.71,1497.07
				c23.84-23.84,47.68-47.68,71.52-71.52c1.22,0.94,2.43,1.88,3.4,2.63c-2.23,5.15-4.58,10.04-6.48,15.1
				c-1.92,5.1-2.78,10.48-2.94,15.95c-0.16,5.48,0.54,10.83,2.03,16.1c1.51,5.34,5.06,12.9,6.83,14.43
				c0.01-1.48-0.03-2.97,0.05-4.45c0.86-14.59,6.87-26.58,18.9-34.96c15.18-10.58,31.22-11.48,47.62-2.69
				c2.23,1.19,4.23,2.82,6.33,4.24c1.57,1.57,3.14,3.14,4.7,4.7c0.89,1.25,1.85,2.46,2.67,3.76c8.65,13.76,9.61,28.13,3.14,42.95
				c-1.42,3.26-3.52,6.22-5.37,9.43c0.39,0.31,0.88,0.75,1.41,1.13c3.55,2.53,6.6,5.56,9.09,9.14c9.49,13.64,10.73,28.2,4.27,43.32
				c-1.73,4.06-4.62,7.62-6.98,11.41c-1.49,1.49-2.98,2.98-4.47,4.47c-3.69,2.31-7.2,4.98-11.1,6.86
				c-16.99,8.19-37.88,3.89-50.42-10.14c-0.76-0.85-1.47-1.75-2.21-2.62c-1.98,1.52-3.74,3.05-5.68,4.31
				c-15.34,9.91-31.11,10.75-47.24,2c-2.17-1.18-4.11-2.77-6.16-4.17c-1.49-1.49-2.98-2.98-4.47-4.47c-0.7-0.98-1.38-1.98-2.09-2.95
				c-11.55-15.76-10.67-37.9,1.98-53.37c6.68-8.16,15.25-13.4,25.57-15.61c3.23-0.69,6.56-0.91,9.99-1.37
				c-20.4-10.59-40.7-10.62-61.18,0.02C1423.56,1499.53,1422.63,1498.3,1421.71,1497.07z"/>
		</g>
	</g>
</g>
<g>
	<g>
		<g>
			
				<linearGradient id="SVGID_00000026847308246674250730000013189586389550970796_" gradientUnits="userSpaceOnUse" x1="828.9797" y1="1000.9553" x2="1173.2457" y2="1000.9553">
				<stop  offset="0" style="stop-color:#D60000"/>
				<stop  offset="1" style="stop-color:#FF9700"/>
			</linearGradient>
			<path style="fill:url(#SVGID_00000026847308246674250730000013189586389550970796_);" d="M1091.14,1012.81H943.12l-49.97,137.3
				h164.97l-15.01,41.24H828.98l138.6-380.8h205.66l-15.01,41.24h-156.51l-43.8,120.35h148.02L1091.14,1012.81z"/>
		</g>
	</g>
	
		<linearGradient id="SVGID_00000175284344606851536240000003414073569112578989_" gradientUnits="userSpaceOnUse" x1="719.8699" y1="1000" x2="1280.13" y2="1000">
		<stop  offset="0" style="stop-color:#D60000"/>
		<stop  offset="1" style="stop-color:#FF9700"/>
	</linearGradient>
	<polygon style="fill:url(#SVGID_00000175284344606851536240000003414073569112578989_);" points="1015.78,891.86 1000.74,931.51 
		1198.03,931.51 1280.13,730.31 921.44,730.31 719.87,1269.69 1086.72,1269.69 1166.92,1063.93 954.91,1063.93 940.67,1105.17 
		1107.73,1104.42 1059.01,1228.62 779.1,1228.62 949.15,771.01 1221.42,771.01 1171.74,892.34 	"/>
</g>
</svg>
